<svg width="800" height="200" viewBox="0 0 800 200" fill="none" xmlns="http://www.w3.org/2000/svg">
  <defs>
    <linearGradient id="flameGradientDark" x1="0%" y1="100%" x2="0%" y2="0%">
      <stop offset="0%" style="stop-color:#EA580C"/>
      <stop offset="50%" style="stop-color:#F97316"/>
      <stop offset="100%" style="stop-color:#FB923C"/>
    </linearGradient>
    <linearGradient id="textGradientDark" x1="0%" y1="0%" x2="100%" y2="0%">
      <stop offset="0%" style="stop-color:#FB923C"/>
      <stop offset="100%" style="stop-color:#F97316"/>
    </linearGradient>
  </defs>
  
  <!-- Background accent -->
  <rect x="0" y="0" width="800" height="200" fill="#18181B"/>
  
  <!-- Flame icon -->
  <g transform="translate(280, 30)">
    <path d="M40 0C40 0 60 30 60 70C60 110 40 140 40 140C40 140 80 110 80 70C80 30 40 0 40 0Z" fill="url(#flameGradientDark)"/>
    <path d="M20 30C20 30 40 50 40 70C40 90 20 110 20 110C20 110 60 90 60 70C60 50 20 30 20 30Z" fill="#FB923C" opacity="0.8"/>
    <path d="M50 50C50 50 60 65 60 80C60 95 50 110 50 110C50 110 75 95 75 80C75 65 50 50 50 50Z" fill="#FDBA74" opacity="0.6"/>
  </g>
  
  <!-- Text: fuego -->
  <text x="400" y="130" font-family="system-ui, -apple-system, BlinkMacSystemFont, 'Segoe UI', Roboto, sans-serif" font-size="72" font-weight="800" fill="url(#textGradientDark)" text-anchor="middle">fuego</text>
  
  <!-- Tagline -->
  <text x="400" y="170" font-family="system-ui, -apple-system, BlinkMacSystemFont, 'Segoe UI', Roboto, sans-serif" font-size="18" fill="#A1A1AA" text-anchor="middle">File-based routing for Go. Fast to write. Faster to run.</text>
</svg>
